<svg width="694" height="409" viewBox="0 0 694 409" fill="none" xmlns="http://www.w3.org/2000/svg">
<g clip-path="url(#clip0_617_4267)">
<rect width="694" height="408.638" fill="#8860E6"/>
<path fill-rule="evenodd" clip-rule="evenodd" d="M622.699 -54.8257H535.104L35.2452 415.789H122.79L622.699 -54.8257ZM124.121 220.048L-140.501 46.101C-149.225 40.3735 -150.398 30.12 -143.052 23.2711L-117.799 -0.399868C-113.871 -4.08468 -108.106 -6.20744 -101.984 -6.20744L366.142 -6.8082L314.361 41.7752L-51.2735 42.2959L163.352 183.4L124.223 220.088L124.121 220.048ZM537.855 140.469L802.477 314.416C811.201 320.143 812.374 330.397 805.028 337.246L779.775 360.916C775.847 364.601 770.081 366.724 763.959 366.724L295.834 367.325L347.615 318.741L713.25 318.221L498.624 177.116L537.753 140.428L537.855 140.469ZM665.565 -25.4273C665.565 41.2999 643.678 58.4824 558.685 58.4824C643.678 58.4824 665.565 75.6648 665.565 142.392C665.565 75.6648 687.451 58.4824 772.444 58.4824C687.451 58.4824 665.565 41.2999 665.565 -25.4273ZM716.786 -18.2548C753.824 -18.2548 763.364 -25.7446 763.364 -54.8226C763.364 -25.7446 772.904 -18.2548 809.942 -18.2548C772.904 -18.2548 763.364 -10.765 763.364 18.313C763.364 -10.765 753.824 -18.2548 716.786 -18.2548Z" fill="white" fill-opacity="0.05"/>
</g>
<defs>
<clipPath id="clip0_617_4267">
<rect width="694" height="408.638" fill="white"/>
</clipPath>
</defs>
</svg>
